<svg width="402.035" height="509.297" xmlns="http://www.w3.org/2000/svg">
 <g>
  <title>background</title>
  <rect x="-1" y="-1" width="404.035" height="511.297" id="canvas_background" fill="none"/>
 </g>

 <g>
  <title>Layer 1</title>
  <g id="jacket_2_">
   <path id="shoulders_2_" fill-rule="evenodd" clip-rule="evenodd" fill="#495061" d="m402.025,490.403c0,0 1.275,-34.418 -24.249,-56.648c-25.523,-22.231 -87.921,-48.58 -178.784,-47.207c-90.862,1.373 35.346,101.803 35.346,101.803l167.687,2.052z"/>
   <path id="shoulders_1_" fill-rule="evenodd" clip-rule="evenodd" fill="#495061" d="m0.011,490.403c0,0 -1.275,-34.464 24.255,-56.724c25.53,-22.261 87.943,-48.645 178.828,-47.271c90.885,1.374 -35.355,101.94 -35.355,101.94s-56.796,0.696 -104.288,1.278c-34.122,0.417 -63.44,0.777 -63.44,0.777z"/>
  </g>
  <g id="head">
   <path id="ear_1_" fill-rule="evenodd" clip-rule="evenodd" fill="#EBCFC2" d="m88.405,203.989c0,0 -11.463,-4.608 -20.133,0.824c-8.67,5.432 -11.941,29.186 -4.52,39.57c7.422,10.383 15.031,22.937 23.009,23.907c7.979,0.969 17.257,-1.649 17.257,-1.649l-3.287,-31.738l-12.326,-30.914z"/>
   <path id="ear" fill-rule="evenodd" clip-rule="evenodd" fill="#EBCFC2" d="m307.924,203.903c0,0 11.469,-4.595 20.144,0.822c8.675,5.417 11.948,29.106 4.522,39.46c-7.426,10.355 -15.039,22.874 -23.022,23.841c-7.983,0.967 -17.266,-1.644 -17.266,-1.644l3.289,-31.651l12.333,-30.828z"/>
   <path id="earring" fill-rule="evenodd" clip-rule="evenodd" fill="#4189C6" d="m316.968,260.216c4.087,0 7.4,3.313 7.4,7.399c0,4.086 -3.313,7.399 -7.4,7.399c-4.087,0 -7.4,-3.313 -7.4,-7.399c0.001,-4.086 3.314,-7.399 7.4,-7.399z"/>
   <path id="neck" fill-rule="evenodd" clip-rule="evenodd" fill="#F5E0D4" d="m253.253,348.185l-110.59,0l0,83.31l55.37,25l55.22,-25l0,-83.31z"/>
   <path id="face" fill-rule="evenodd" clip-rule="evenodd" fill="#F5E0D4" d="m192.816,45.238c69.763,-1.072 109.353,34.35 125.797,86.731c20.207,64.371 -9.413,137.683 -33.71,179.217c-9.957,17.021 -18.84,33.648 -34.532,44.804c-10.57,7.515 -25.525,12.109 -40.699,14.798c-19.135,3.39 -45.278,-4 -55.91,-10.276c-37.977,-22.419 -67.749,-96 -78.931,-146.744c-5.022,-22.79 -4.018,-55.379 2.056,-76.044c11.928,-40.586 34.336,-69.057 71.942,-83.854c9.257,-3.643 19.697,-5.377 30.421,-7.399c4.522,-0.41 9.045,-0.822 13.566,-1.233z"/>
   <path id="glasses" fill-rule="evenodd" clip-rule="evenodd" fill="#4189C6" d="m187.883,213.768l25.077,0l0,10.276l-25.077,0l0,-10.276z"/>
   <path id="glasses_2_" fill-rule="evenodd" clip-rule="evenodd" fill="#4189C6" d="m180.483,181.705l-66.6,0c-4.54,0 -8.22,3.68 -8.22,8.22l0,50.97c0,4.54 3.68,8.22 8.22,8.22l66.6,0c4.54,0 8.22,-3.68 8.22,-8.22l0,-50.97c0,-4.54 -3.68,-8.22 -8.22,-8.22zm-1.72,52.13c0,3.36 -2.78,6.09 -6.21,6.09l-50.35,0c-3.44,0 -6.22,-2.73 -6.22,-6.09l0,-37.74c0,-3.36 2.78,-6.09 6.22,-6.09l50.35,0c3.43,0 6.21,2.73 6.21,6.09l0,37.74z"/>
   <path id="glasses_1_" fill-rule="evenodd" clip-rule="evenodd" fill="#4189C6" d="m284.483,181.705l-66.6,0c-4.54,0 -8.22,3.68 -8.22,8.22l0,50.97c0,4.54 3.68,8.22 8.22,8.22l66.6,0c4.54,0 8.22,-3.68 8.22,-8.22l0,-50.97c0,-4.54 -3.68,-8.22 -8.22,-8.22zm-1.72,52.13c0,3.36 -2.78,6.09 -6.21,6.09l-50.35,0c-3.44,0 -6.22,-2.73 -6.22,-6.09l0,-37.74c0,-3.36 2.78,-6.09 6.22,-6.09l50.35,0c3.43,0 6.21,2.73 6.21,6.09l0,37.74z"/>
   <path id="eyebrows_1_" fill-rule="evenodd" clip-rule="evenodd" fill="#B08F7E" d="m148.783,151.061c-24.698,0.54 -39.008,8.574 -39.008,16.937c0,8.364 13.151,5.992 22.995,2.066c9.843,-3.926 22.872,-3.621 28.332,0.413c5.46,4.034 17.164,5.165 17.656,-3.305c0.492,-8.47 -21.555,-16.294 -29.975,-16.111z"/>
   <path id="eyebrows" fill-rule="evenodd" clip-rule="evenodd" fill="#B08F7E" d="m249.548,150.878c24.728,0.537 39.055,8.531 39.055,16.853c0,8.322 -13.166,5.962 -23.022,2.055c-9.855,-3.906 -22.9,-3.603 -28.366,0.411c-5.466,4.014 -17.184,5.14 -17.677,-3.288c-0.493,-8.429 21.579,-16.215 30.01,-16.031z"/>
   <path id="beard_1_" fill-rule="evenodd" clip-rule="evenodd" fill="#B08F7E" d="m311.503,253.395c-7.69,22.29 -17.52,42.26 -26.6,57.79c-9.96,17.02 -18.84,33.65 -34.53,44.81c-10.57,7.51 -25.53,12.1 -40.7,14.79c-19.14,3.39 -45.28,-4 -55.91,-10.27c-27.23,-16.07 -50.24,-58.45 -65.21,-99.85c-0.05,-2.84 0.14,-5.52 0.67,-7.85c0.41,-0.13 0.82,-0.27 1.23,-0.41c6.1,-2.35 12.36,4.16 15.62,6.58c11.95,8.86 20.54,20.07 31.24,30c-2.25,-8.18 4.44,-26.45 12.75,-19.31c3.76,2.73 0.55,12.25 1.64,17.26c18.14,12.21 20,-9.94 28.78,-14.39c5.9,-1.13 11.45,3.89 17.27,4.94c9.49,1.7 14.05,-4.87 22.2,-5.35c8.17,4.72 8.23,20.15 22.61,17.27c3.57,-0.72 5.17,-0.5 6.57,-3.29c2.72,-5.18 -1.67,-13.47 1.24,-16.86c2.9,-3.38 3.29,-0.54 4.93,-0.82c5.96,2.76 11.39,11.2 8.22,20.14c3.43,-3.7 6.85,-7.4 10.28,-11.09c10.42,-10.56 19.89,-18.84 34.12,-25.9c0.82,0.14 1.65,0.27 2.47,0.41c0.37,0.47 0.74,0.93 1.11,1.4z"/>
   <path stroke="null" id="mounth" fill-rule="evenodd" clip-rule="evenodd" fill="#EBCFC2" d="m167.739,313.716997c0,0 8.352,43.627799 31.655,42.11508c23.303,-1.515733 31.244,-42.11508 31.244,-42.11508s-15.235,-14.862019 -27.544,-14.862019c-5.288,0 -10.737,8.826207 -17.677,12.388029c-6.941,3.558809 -17.678,2.47399 -17.678,2.47399z"/>
   <path id="angular_1_" fill-rule="evenodd" clip-rule="evenodd" fill="#979A9B" d="m238.36,367.185c-6.226,2.244 -12.452,4.499 -18.678,6.743c1.034,8.582 2.08,17.164 3.113,25.746c5.392,2.857 10.796,5.725 16.188,8.582c4.757,-2.673 9.514,-5.345 14.27,-8.03l0,-28.296c-4.969,-1.582 -9.925,-3.164 -14.893,-4.745zm9.015,29.988c0,-0.074 -2.789,-5.468 -2.789,-5.468s-6.438,0 -9.962,0c-1.034,1.839 -2.079,3.678 -3.113,5.517l-4.358,0c3.736,-8.582 11.83,-25.746 11.83,-25.746l12.452,25.746l-4.06,-0.049z"/>
   <polygon id="angular" fill-rule="evenodd" clip-rule="evenodd" fill="#979A9B" points="242.712,387.412 235.864,387.412    238.986,378.831  "/>
   <path id="spring_boot" fill-rule="evenodd" clip-rule="evenodd" fill="#979A9B" d="m169.389,370.317c-5.438,-1.343 -13.797,-0.763 -20.371,-0.691c-2.418,1.622 -4.519,4.226 -6.356,7.153c0,5.395 0.389,19.66 0.389,25.564c1.694,2.451 3.467,4.492 4.93,5.609l20.371,0c3.173,-1.492 4.192,-5.293 5.87,-8.287c1.84,-3.108 3.684,-6.215 5.524,-9.323c0.982,-3.894 -8.417,-17.404 -10.357,-20.025zm-12.085,5.87l1.726,0c0.231,0.345 0.459,0.691 0.691,1.036c0.114,3.912 0.231,7.827 0.345,11.74c-1.105,0.68 -1.088,0.932 -2.417,0.691c-1.999,-1.459 -1.439,-11.341 -0.345,-13.467zm3.453,23.824c-13.487,3.308 -15.351,-11.377 -11.74,-19.336c0.805,-0.691 1.612,-1.381 2.417,-2.072c0.691,0.114 1.381,0.231 2.072,0.345c0.114,0.345 0.231,0.691 0.345,1.036c-3.474,5.203 -7.758,14.308 2.072,16.919c11.567,3.073 13.317,-11.819 6.906,-16.228l0,-1.381c0.459,-0.345 0.922,-0.691 1.381,-1.036c9.419,4.883 5.97,19.443 -3.453,21.753z"/>
   <path id="collar_1_" fill-rule="evenodd" clip-rule="evenodd" fill="#FFFFFF" d="m253.659,389.696l-59.609,69.878l36.588,9.043l40.699,-45.215c0,0 -0.045,-13.113 -3.289,-19.319c-3.244,-6.206 -14.389,-14.387 -14.389,-14.387z"/>
   <path id="collar" fill-rule="evenodd" clip-rule="evenodd" fill="#FFFFFF" d="m142.662,389.696l59.609,69.878l-36.588,9.043l-40.699,-45.215c0,0 0.045,-13.113 3.289,-19.319c3.244,-6.206 14.389,-14.387 14.389,-14.387z"/>
   <path id="hears" fill-rule="evenodd" clip-rule="evenodd" fill="#B08F7E" d="m72.364,195.682c0,0 6.133,-17.02 6.578,-23.841c0.445,-6.821 5.171,-46.943 19.733,-67.001c9.368,-14.438 23.076,-17.432 36.588,-14.387c13.512,3.046 29.166,11.175 45.221,9.043c16.055,-2.132 56.817,-22.612 73.587,-14.798c16.77,7.815 44.946,21.469 48.099,47.27c3.152,25.801 21.377,66.59 21.377,66.59s9.441,-65.867 9.455,-83.443c0.014,-17.576 -45.749,-69.159 -55.087,-79.332s-39.552,-36.673 -57.555,-35.76c-18.003,0.914 -42.247,15.528 -51.799,16.442c-9.552,0.914 -15.83,-3.592 -26.31,-1.644c-10.48,1.948 -21.592,1.371 -53.443,34.528c-31.85,33.157 -28.534,82.852 -26.31,110.572c2.224,27.72 9.866,35.761 9.866,35.761z"/>
   <path fill-rule="evenodd" clip-rule="evenodd" fill="#D5AD98" d="m159.106,87.987c0,0 -7.832,-11.734 2.056,-33.295c9.887,-21.561 10.277,-31.651 10.277,-31.651s-5.6,13.958 -13.155,31.651c-7.556,17.693 0.822,33.295 0.822,33.295z" id="svg_1"/>
   <path fill-rule="evenodd" clip-rule="evenodd" fill="#D5AD98" d="m187.883,91.276c0,0 22.204,-25.629 36.588,-36.994c14.384,-11.365 32.066,-24.252 32.066,-24.252s-13.968,3.438 -34.943,21.375c-20.976,17.936 -33.711,39.871 -33.711,39.871z" id="svg_2"/>
   <path fill-rule="evenodd" clip-rule="evenodd" fill="#D5AD98" d="m172.672,87.576c0,0 -0.479,-23.829 11.1,-50.148c11.578,-26.318 34.944,-30.417 34.944,-30.417s-17.107,7.784 -29.188,31.24c-12.081,23.455 -16.856,49.325 -16.856,49.325z" id="svg_3"/>
   <g stroke="null" id="svg_10">
    <path stroke="null" d="m333.632557,410.743427a42.097373,42.097373 0 0 1 -9.601151,1.09415a42.288842,42.288842 0 0 1 -9.601165,-1.09415a42.753852,42.753852 0 0 1 9.601165,-10.695301a42.972688,42.972688 0 0 1 9.601151,10.695301zm28.94023,-23.524198a47.103101,47.103101 0 0 0 -12.062993,-1.55916a47.595464,47.595464 0 0 0 -26.478389,8.014638a47.540758,47.540758 0 0 0 -26.478402,-8.014638a47.103101,47.103101 0 0 0 -12.145051,1.55916a44.367732,44.367732 0 0 0 -4.896317,1.531808a0.191483,0.191483 0 0 0 0,0.246188a47.376642,47.376642 0 0 0 2.270359,4.294529a0.191483,0.191483 0 0 0 0.218835,0a44.832742,44.832742 0 0 1 4.951022,-1.477102a42.808558,42.808558 0 0 1 31.702952,5.142505a47.92371,47.92371 0 0 0 -10.339702,12.254462c-0.547082,0.875315 -1.012092,1.777982 -1.504455,2.735369s-0.601787,1.230914 -0.902681,1.887407s-0.847962,1.969465 -1.203561,2.954204a47.75958,47.75958 0 0 0 11.734746,51.151442c0.711198,0.683846 1.44975,1.340339 2.215653,1.996818s1.203561,1.012092 1.832701,1.477102s1.613866,1.203575 2.434475,1.750643a0.191483,0.191483 0 0 0 0.218835,0c0.820609,-0.574435 1.641219,-1.148856 2.434475,-1.750643s1.230914,-0.957373 1.832701,-1.477102s1.504455,-1.312972 2.215653,-1.996818a47.732227,47.732227 0 0 0 14.71629,-34.493026a47.568111,47.568111 0 0 0 -2.981544,-16.658416c-0.382952,-1.012092 -0.79327,-1.996818 -1.230928,-2.981557s-0.601774,-1.285619 -0.902668,-1.887407s-0.957387,-1.805349 -1.504455,-2.735369a48.169898,48.169898 0 0 0 -10.339702,-12.254462a42.808558,42.808558 0 0 1 31.730305,-5.033094a44.121544,44.121544 0 0 1 4.951022,1.477102a0.191483,0.191483 0 0 0 0.218835,0q1.203561,-2.078876 2.243006,-4.267177a0.191483,0.191483 0 0 0 0,-0.246188a46.20042,46.20042 0 0 0 -4.951022,-1.641219z" fill="#151f34" id="svg_7"/>
    <path stroke="null" d="m340.197445,433.447002a42.425606,42.425606 0 0 1 -11.625335,29.241124a42.835924,42.835924 0 0 1 -1.969465,-12.80153a42.398253,42.398253 0 0 1 11.625335,-29.241124a42.7265,42.7265 0 0 1 1.969465,12.80153" fill="#348540" id="svg_8"/>
    <path stroke="null" d="m321.542212,449.886596a42.53503,42.53503 0 0 1 -1.969465,12.80153a42.507678,42.507678 0 0 1 -9.65587,-42.042654a42.398253,42.398253 0 0 1 11.625335,29.241124" fill="#7dbc42" id="svg_9"/>
   </g>
   <path id="svg_12" fill-rule="evenodd" clip-rule="evenodd" fill="#333333" d="m275.23297,222.83066c0,8.27384 -6.71016,14.984 -14.984,14.984c-6.13327,0 -11.4012,-3.68907 -13.70877,-8.957c0.91088,0.53135 1.97358,0.83497 3.097,0.83497c3.44617,0 6.23954,-2.79337 6.23954,-6.23954s-2.79337,-6.23954 -6.23954,-6.23954c-1.3815,0 -2.65674,0.45545 -3.70425,1.22969c1.86731,-6.13327 7.5755,-10.5814 14.31602,-10.5814c8.27384,0 14.984,6.69498 14.984,14.96882z" stroke="null"/>
   <path id="svg_15" fill-rule="evenodd" clip-rule="evenodd" fill="#FFFFFF" d="m250.979,184.9289c16.97017,0 30.72702,13.75552 30.72702,30.72305c0,16.96753 -13.75685,30.72305 -30.72702,30.72305c-16.97018,0 -30.72702,-13.75552 -30.72702,-30.72305c-0.00133,-16.96753 13.75684,-30.72305 30.72702,-30.72305z" stroke="null"/>
   <path id="svg_13" fill-rule="evenodd" clip-rule="evenodd" fill="#333333" d="m272.677463,228.645423c0,8.27384 -6.71016,14.984 -14.984,14.984c-6.13327,0 -11.4012,-3.68907 -13.70877,-8.957c0.91088,0.53135 1.97358,0.83497 3.097,0.83497c3.44617,0 6.23954,-2.79337 6.23954,-6.23954s-2.79337,-6.23954 -6.23954,-6.23954c-1.3815,0 -2.65674,0.45545 -3.70425,1.22969c1.86731,-6.13327 7.5755,-10.5814 14.31602,-10.5814c8.27384,0 14.984,6.69498 14.984,14.96882z" stroke="null"/>
   <path id="svg_14" fill-rule="evenodd" clip-rule="evenodd" fill="#FFFFFF" d="m146.97992,184.9289c16.97017,0 30.72702,13.75552 30.72702,30.72305c0,16.96753 -13.75685,30.72305 -30.72702,30.72305c-16.97018,0 -30.72702,-13.75552 -30.72702,-30.72305c-0.00133,-16.96753 13.75684,-30.72305 30.72702,-30.72305z" stroke="null"/>
   <path id="svg_16" fill-rule="evenodd" clip-rule="evenodd" fill="#333333" d="m169.400596,228.404679c0,8.27384 -6.71016,14.984 -14.984,14.984c-6.13327,0 -11.4012,-3.68907 -13.70877,-8.957c0.91088,0.53135 1.97358,0.83497 3.097,0.83497c3.44617,0 6.23954,-2.79337 6.23954,-6.23954s-2.79337,-6.23954 -6.23954,-6.23954c-1.3815,0 -2.65674,0.45545 -3.70425,1.22969c1.86731,-6.13327 7.5755,-10.5814 14.31602,-10.5814c8.27384,0 14.984,6.69498 14.984,14.96882z" stroke="null"/>
  </g>
  <g id="tie">
   <path id="tie_5_" fill-rule="evenodd" clip-rule="evenodd" fill="#3373AA" d="m212.889,468.099c0,0 -87.234,-50.614 -94.774,-19.142c-7.54,31.472 -16.014,55.419 7.217,59.845s87.557,-40.703 87.557,-40.703z"/>
   <path id="tie_4_" fill-rule="evenodd" clip-rule="evenodd" fill="#4189C6" d="m197.809,460.493c25.041,-12.944 74.474,-35.103 80.132,-11.637c7.616,31.586 16.143,55.613 -7.032,60.124c-16.286,3.17 -52.9,-18.183 -73.228,-31.156c-0.021,-15.343 0.15,-2.213 0.128,-17.331z"/>
  </g>
 </g>
</svg>